<?xml version="1.0" encoding="UTF-8"?>
<svg xmlns="http://www.w3.org/2000/svg" xmlns:xlink="http://www.w3.org/1999/xlink" width="30pt" height="20pt" viewBox="0 0 30 20" version="1.1">
<g id="surface1">
<path style=" stroke:none;fill-rule:nonzero;fill:rgb(87.45098%,7.843137%,43.137255%);fill-opacity:1;" d="M 21.039062 16.667969 L 8.960938 16.667969 C 8.597656 16.667969 8.304688 16.371094 8.304688 16.007812 L 8.304688 3.992188 C 8.304688 3.628906 8.597656 3.332031 8.960938 3.332031 L 21.039062 3.332031 C 21.402344 3.332031 21.695312 3.628906 21.695312 3.992188 L 21.695312 16.007812 C 21.695312 16.371094 21.402344 16.667969 21.039062 16.667969 "/>
<path style=" stroke:none;fill-rule:nonzero;fill:rgb(100%,100%,100%);fill-opacity:1;" d="M 17.902344 10.632812 L 13.65625 9.957031 L 14.230469 12.464844 Z M 18.078125 10.429688 L 14.738281 5.789062 L 13.648438 9.734375 Z M 13.441406 9.679688 L 9.941406 5.210938 L 14.523438 5.757812 Z M 11.742188 7.828125 L 9.800781 6 L 10.3125 6 Z M 19.117188 8.175781 L 18.296875 10.402344 L 16.964844 8.5625 Z M 14.75 12.433594 L 17.972656 11.140625 L 18.109375 10.730469 Z M 12.0625 14.789062 L 13.441406 9.941406 L 14.144531 13.097656 Z M 19.316406 8.191406 L 18.976562 9.113281 L 20.199219 9.089844 Z M 19.316406 8.191406 "/>
</g>
</svg>
